<svg xmlns="http://www.w3.org/2000/svg" width="512" height="512" aria-label="clustrail" viewBox="454 450 1140 1140"><path transform="translate(0,0)" fill="#326ce5" d="M 940.566 522.818 C 969.443 517.297 998.744 527.508 1003.87 561.078 C 1008.04 588.368 1003.29 620.296 1004.99 648.047 C 1005.19 672.5 1005.84 697.587 1004.33 721.928 C 1003.19 740.093 989.328 758.094 971.896 763.285 C 963.993 766.545 954.716 767.81 946.43 770.166 C 874.66 790.566 809.124 846.023 779.917 915.381 C 776.213 924.168 772.922 933.123 770.054 942.217 C 765.291 957.741 763.742 971.93 753.82 985.359 C 737.735 1007.13 715.716 1005.18 691.948 1005.18 L 642.351 1005.21 L 588.66 1005.19 C 568.842 1005.17 549.126 1007.48 532.825 993.803 C 507.36 972.44 515.318 944.769 521.171 917.16 C 536.993 842.532 569.859 772.575 617.2 712.755 C 677.63 636.193 758.469 578.268 850.395 545.662 C 875.286 536.593 913.902 525.809 940.566 522.818 z"/>
<path transform="translate(0,0)" fill="#326ce5" d="M 940.566 522.818 C 969.443 517.297 998.744 527.508 1003.87 561.078 C 1008.04 588.368 1003.29 620.296 1004.99 648.047 C 1005.19 672.5 1005.84 697.587 1004.33 721.928 C 1003.19 740.093 989.328 758.094 971.896 763.285 C 978.023 752.108 998.408 749.338 1000.27 726.034 C 1001.27 713.568 1001.62 702.109 1001.64 689.379 L 1001.67 636.589 C 1001.68 612.15 1002.62 583.891 1000.47 559.549 C 1000.12 555.612 993.015 541.987 990.366 538.861 C 975.826 521.702 958.259 524.734 940.566 522.818 z"/>
<path transform="translate(0,0)" fill="#326ce5" d="M 557.282 1043.09 C 587.113 1041.74 620.569 1043.36 650.835 1042.75 C 673.219 1043.41 696.09 1041.55 718.39 1043.25 C 752.546 1045.87 760.014 1069.41 767.783 1095.83 C 790.209 1171.1 844.639 1232.67 916.585 1264.17 C 925.351 1268.09 934.341 1271.49 943.509 1274.35 C 967.337 1281.56 996.576 1285.95 1003.14 1316.6 C 1007.34 1336.23 1004.12 1358.93 1005.11 1379.1 C 1005.7 1391.33 1004.58 1404.54 1005.06 1416.85 C 1002.62 1459.36 1018.56 1508.39 963.487 1521.69 C 949.474 1523.42 933.728 1518.99 920.02 1516.11 C 725.519 1475.27 556.646 1315.51 518.768 1118.38 C 515.326 1100.47 511.863 1083.52 522.106 1066.79 C 530.839 1052.52 541.754 1046.92 557.282 1043.09 z"/>
<path transform="translate(0,0)" fill="#326ce5" d="M 1068.68 523.14 C 1085.1 512.693 1111.27 518.155 1129.71 520.533 C 1276.76 539.487 1410.76 626.828 1490.23 751.533 C 1502.06 770.099 1528.09 816.689 1532.17 836.956 C 1533.47 843.665 1533.29 850.576 1531.65 857.209 C 1526.93 876.866 1509.19 892.121 1488.5 893.08 C 1464.66 894.185 1440.57 893.217 1416.69 893.533 C 1389.4 892.761 1355.79 894.877 1329.56 893.291 C 1321.9 892.865 1314.32 891.516 1306.99 889.273 C 1269.41 877.797 1259.59 853.827 1232.87 828.642 C 1203.04 800.541 1167.1 779.75 1127.86 767.906 C 1099.82 759.48 1060.96 763.024 1047.78 731.274 C 1045.01 724.988 1044 718.682 1043.49 711.892 C 1042.01 692.128 1041.31 564.609 1045.36 551.666 C 1049.23 539.251 1057.32 529.394 1068.68 523.14 z"/>
<path transform="translate(0,0)" fill="#326ce5" d="M 1047.78 731.274 C 1045.01 724.988 1044 718.682 1043.49 711.892 C 1042.01 692.128 1041.31 564.609 1045.36 551.666 C 1049.23 539.251 1057.32 529.394 1068.68 523.14 C 1066.39 530.466 1049.37 541.075 1047.98 552.484 C 1045.06 576.543 1046.6 601.712 1046.72 625.995 L 1046.5 707.078 C 1046.48 716.461 1049.36 723.94 1047.78 731.274 z"/>
<path transform="translate(0,0)" fill="#326ce5" d="M 1043.06 1378.71 C 1043.38 1364.11 1041.75 1336.49 1044.86 1323.42 C 1055.01 1280.78 1096.94 1287.31 1130.41 1275.87 C 1157.03 1266.77 1172.09 1260.88 1196.11 1244.69 C 1212.47 1233.69 1227.56 1220.9 1241.11 1206.58 C 1258.1 1188.47 1263.64 1176.16 1285.85 1162.44 C 1298.8 1154.47 1313.22 1149.19 1328.24 1146.9 C 1341.3 1144.89 1386.65 1145.05 1402.9 1145.35 C 1433.99 1145.93 1471.95 1143.9 1502.28 1145.32 C 1507.12 1145.5 1511.92 1146.2 1516.61 1147.39 C 1528.23 1150.41 1535.12 1158.74 1531.67 1171.46 C 1531.03 1173.82 1530.76 1174.6 1530.58 1177.16 C 1524.84 1194.23 1517.55 1210.24 1509.57 1226.35 C 1505.74 1233.7 1501.76 1241.69 1497.5 1248.74 C 1496.07 1246.58 1487.4 1240.26 1483.97 1236.76 C 1473.11 1247.07 1462.43 1260.32 1451.17 1269.82 C 1452.73 1265.32 1455.03 1264.66 1455.72 1259.53 L 1454.67 1258.22 C 1450.74 1258.78 1443.93 1262.5 1440.02 1264.41 C 1432.66 1268.94 1423.14 1276.4 1415.76 1281.54 C 1402.96 1290.4 1389.74 1298.63 1376.14 1306.21 C 1273.42 1363.04 1159.14 1381.02 1043.06 1378.71 z"/>
<path transform="translate(0,0)" fill="#326ce5" d="M 1527.03 1179.05 L 1530.58 1177.16 C 1524.84 1194.23 1517.55 1210.24 1509.57 1226.35 C 1505.74 1233.7 1501.76 1241.69 1497.5 1248.74 C 1496.07 1246.58 1487.4 1240.26 1483.97 1236.76 C 1473.11 1247.07 1462.43 1260.32 1451.17 1269.82 C 1452.73 1265.32 1455.03 1264.66 1455.72 1259.53 L 1454.67 1258.22 C 1450.74 1258.78 1443.93 1262.5 1440.02 1264.41 C 1462.99 1244.88 1485.65 1226.93 1505.36 1203.85 C 1512.34 1195.68 1519.67 1186.81 1527.03 1179.05 z"/>
<path transform="translate(0,0)" fill="#326ce5" d="M 1483.97 1236.76 L 1501.22 1216.16 C 1502.35 1221.41 1503.04 1222.11 1507.76 1225.21 C 1508.36 1225.6 1508.96 1225.98 1509.57 1226.35 C 1505.74 1233.7 1501.76 1241.69 1497.5 1248.74 C 1496.07 1246.58 1487.4 1240.26 1483.97 1236.76 z"/>
<path transform="translate(0,0)" fill="#326ce5" d="M 1527.03 1179.05 L 1530.58 1177.16 C 1524.84 1194.23 1517.55 1210.24 1509.57 1226.35 C 1508.96 1225.98 1508.36 1225.6 1507.76 1225.21 C 1503.04 1222.11 1502.35 1221.41 1501.22 1216.16 C 1508.12 1207.08 1522.27 1189.01 1527.03 1179.05 z"/>
<path transform="translate(0,0)" fill="#326ce5" d="M 1451.17 1269.82 C 1462.43 1260.32 1473.11 1247.07 1483.97 1236.76 C 1487.4 1240.26 1496.07 1246.58 1497.5 1248.74 C 1426.19 1375.29 1308.17 1468.89 1168.7 1509.48 C 1154.21 1513.64 1140.05 1516.51 1125.48 1519.63 C 1032.58 1539.53 1042.71 1476.29 1043.44 1411.92 C 1134.25 1416.05 1224.82 1399.59 1308.37 1363.76 C 1330.58 1354.01 1346.83 1343.33 1367.07 1333.42 C 1395.14 1315.77 1413.49 1302.6 1438.73 1281.29 C 1443 1277.51 1447.16 1273.89 1451.17 1269.82 z"/>
<path transform="translate(0,0)" fill="#326ce5" d="M 1438.73 1281.29 C 1433.61 1294.6 1381.28 1331.77 1367.07 1333.42 C 1395.14 1315.77 1413.49 1302.6 1438.73 1281.29 z"/></svg>
